<svg xmlns="http://www.w3.org/2000/svg" version="1.1" viewBox="0 0 3000 3000" width="3000" height="3000">
<defs/><!--ITEM: Illustration component 1--><g transform="translate(560.0 2062.0) rotate(31.194211996795044 -128.0 142.0)  scale(-3.311301108509785 3.338466421375589)"><svg width="77.311" height="85.069" viewBox="0.0 0.0 77.311 85.069"><g id="&#1057;&#1083;&#1086;&#1081;_2-i1" data-name="&#1057;&#1083;&#1086;&#1081; 2"><g id="&#1057;&#1083;&#1086;&#1081;_3-i1" data-name="&#1057;&#1083;&#1086;&#1081; 3"><path d="M46.255,67.185c-8.592-9.318-18.748-47.278-.781-65.769C51.1-4.373,55.829,9.188,57.958,13.357,62.182,21.626,68.2,24.818,69.928,31.9,72.882,44.031,46.255,67.185,46.255,67.185Z" fill="#000000"/><path d="M74.23,79.456c6.285-3.573,1.187-9.855.091-18.144-1.018-7.689-.39-11.892-5.037-13.7-6.633-2.575-23.5,18.344-23.5,18.344C53.137,76.458,66.867,83.642,74.23,79.456Z" fill="#000000"/><circle cx="17.882" cy="45.081" r="4.656" fill="#000000"/><path d="M31.078,58.408c6.177,9.837,11.916,22.48,9.971,23.7s-10.84-9.441-17.017-19.278-7.3-15.124-5.352-16.346S24.9,48.571,31.078,58.408Z" fill="#000000"/><path d="M34.07,67.98s13.6-20.7,20.736-19.923c5,.548,5.789,5.387,9.282,13.565,3.765,8.817,11.7,15.186,5.879,20.074C59.216,90.729,42.145,80.071,34.07,67.98Z" fill="#8e231d"/><path d="M.257,31.125s4.88-1.3,8.127.472c4.841,2.641,8.127,11.632,8.127,11.632" fill="none" stroke="#000" stroke-miterlimit="10" stroke-width="2"/><path d="M6.277,24.839s5,.717,7.292,3.62c3.418,4.327,2.916,13.887,2.916,13.887" fill="none" stroke="#000" stroke-miterlimit="10" stroke-width="2"/><path d="M34.07,67.98C23.942,58.85,9.6,29.2,23.512,5.64,27.1-.425,32.694,9.177,35.539,13.45,41.385,22.234,47,25.122,50.968,32.414,57.757,44.893,34.07,67.98,34.07,67.98Z" fill="#e33b2b"/></g></g></svg></g><!--ITEM: Illustration component 2--><g transform="translate(2264.0 1586.0) rotate(0.0 277.0 306.0)  scale(7.165862555134456 7.194160034795283)"><svg width="77.311" height="85.069" viewBox="0.0 0.0 77.311 85.069"><g id="&#1057;&#1083;&#1086;&#1081;_2-i2" data-name="&#1057;&#1083;&#1086;&#1081; 2"><g id="&#1057;&#1083;&#1086;&#1081;_3-i2" data-name="&#1057;&#1083;&#1086;&#1081; 3"><path d="M46.255,67.185c-8.592-9.318-18.748-47.278-.781-65.769C51.1-4.373,55.829,9.188,57.958,13.357,62.182,21.626,68.2,24.818,69.928,31.9,72.882,44.031,46.255,67.185,46.255,67.185Z" fill="#000000"/><path d="M74.23,79.456c6.285-3.573,1.187-9.855.091-18.144-1.018-7.689-.39-11.892-5.037-13.7-6.633-2.575-23.5,18.344-23.5,18.344C53.137,76.458,66.867,83.642,74.23,79.456Z" fill="#000000"/><circle cx="17.882" cy="45.081" r="4.656" fill="#000000"/><path d="M31.078,58.408c6.177,9.837,11.916,22.48,9.971,23.7s-10.84-9.441-17.017-19.278-7.3-15.124-5.352-16.346S24.9,48.571,31.078,58.408Z" fill="#000000"/><path d="M34.07,67.98s13.6-20.7,20.736-19.923c5,.548,5.789,5.387,9.282,13.565,3.765,8.817,11.7,15.186,5.879,20.074C59.216,90.729,42.145,80.071,34.07,67.98Z" fill="#8e231d"/><path d="M.257,31.125s4.88-1.3,8.127.472c4.841,2.641,8.127,11.632,8.127,11.632" fill="none" stroke="#000" stroke-miterlimit="10" stroke-width="2"/><path d="M6.277,24.839s5,.717,7.292,3.62c3.418,4.327,2.916,13.887,2.916,13.887" fill="none" stroke="#000" stroke-miterlimit="10" stroke-width="2"/><path d="M34.07,67.98C23.942,58.85,9.6,29.2,23.512,5.64,27.1-.425,32.694,9.177,35.539,13.45,41.385,22.234,47,25.122,50.968,32.414,57.757,44.893,34.07,67.98,34.07,67.98Z" fill="#e33b2b"/></g></g></svg></g><!--ITEM: Illustration component 3--><g transform="translate(490.0 218.0) rotate(0.0 914.0 1331.0)  scale(40.60237217360402 40.157492193274905)"><svg width="45.022" height="66.289" viewBox="0.0 0.0 45.022 66.289"><g>
	<g>
		<g>
			<path style="fill:#FDBC42;" d="M45.022,22.511c0-12.961-10.954-23.364-24.109-22.456C9.99,0.809,1.066,9.536,0.093,20.442     C-0.52,27.3,1.947,33.591,6.266,38.091c4.171,4.345,6.337,10.238,6.337,16.261v0.637h19.816v-0.948     c0-6.055,2.462-11.777,6.585-16.212C42.738,33.812,45.022,28.429,45.022,22.511z"/>
		</g>
	</g>
	<g>
		<g>
			<circle style="fill:#fdbc42;" cx="14.437" cy="27.495" r="3.573"/>
		</g>
	</g>
	<g>
		<g>
			<circle style="fill:#fdbc42;" cx="30.585" cy="27.495" r="3.573"/>
		</g>
	</g>
	<g>
		<g>
			<g>
				<polygon style="fill:#fdbc42;" points="23.011,65.091 22.011,65.091 22.011,39.679 14.021,27.773 14.851,27.216 23.011,39.374           "/>
			</g>
		</g>
		<g>
			<g>
				<polygon style="fill:#fdbc42;" points="23.011,65.091 22.011,65.091 22.011,39.374 30.171,27.216 31.001,27.773 23.011,39.679           "/>
			</g>
		</g>
	</g>
	<g>
		<g>
			<rect x="10.082" y="48.448" style="fill:#e23e2c;" width="24.957" height="3.607"/>
		</g>
	</g>
	<g>
		<g>
			<rect x="10.082" y="55.662" style="fill:#e23e2c;" width="24.957" height="3.607"/>
		</g>
	</g>
	<g>
		<g>
			<rect x="10.082" y="52.055" style="fill:#8f241e;" width="24.957" height="3.607"/>
		</g>
	</g>
	<g>
		<g>
			<path style="fill:#8f241e;" d="M28.02,66.289H17.102c-3.877,0-7.02-3.143-7.02-7.02v0H35.04v0     C35.04,63.145,31.897,66.289,28.02,66.289z"/>
		</g>
	</g>
</g>
</svg></g><!--ITEM: Illustration component 4--><g transform="translate(1070.0 1432.0) rotate(0.0 358.0 524.0) translate(0.0 0.0) scale(4.424942834188245 4.452639718565978)"><svg width="161.81" height="164.39686259541986" viewBox="0.0 0.0 161.81 164.39686259541986"><path d="M155.653,105.034c-3.317-1.156-7-0.432-9.632,1.895c0,0-0.019,0.012-0.028,0.018  c0.149-2.324-5.875-13.896-5.875-13.896s-7.977,8.591-6.547,17.17c0.356,2.141,2.051,6.951,2.074,6.985  c-3.385,2.103-9.035,4.228-14.203,4.395c-5.899,0.191-11.148-1.741-11.317-1.718c6.5-8.813,12.098-18.29,16.621-28.251  c0.79-1.739,1.545-3.492,2.27-5.257c0.026,0.06,0.102,0.166,0.106,0.164c1.382-0.858,2.232,1.529,10.827-2.29  c8.638-3.562,9.25-11.023,9.25-11.023s-10.888,0.714-14.685,3.039c0.064-0.063,3.102-3.911,2.942-8.757  c-0.231-7.016-3.707-15.832-3.707-15.832s-5.708,6.753-7.78,14.407c-1.095,4.042-0.193,9.476,0.953,11.808  c-7.327,20.407-19.022,39.202-34.124,54.777c-2.971,3.064-6.083,5.985-9.299,8.79c-0.292-9.104-0.54-18.209-0.724-27.314  c6.579-4.54,11.995-10.708,15.587-17.852c3.513-0.595,8.056-3.011,9.234-6.264c4.125-11.389-0.595-19.938-0.595-19.938  S95.2,79.351,93.733,83.003c-1.624,4.042,0.917,8.984,1.132,9.1c-2.799,6.182-6.974,11.615-12.2,15.866  C82.056,71.932,82.539,35.915,85.488,0H75.49c-2.64,32.141-3.307,64.366-2.98,96.611c-6.285-1.347-12.174-5.25-15.891-10.578  c0.055-0.09,5.195-2.099,4.591-11.763c-0.323-5.172-4.914-14.454-4.914-14.454s-9.633,9.282-9.422,13.503  c-3.991-3.524-16.563-6.899-16.734-6.695c-0.643,0.762,4.186,14.188,7.958,17.91c3.783,3.731,9.788,5.778,15.197,5.394  c4.752,6.162,11.623,10.304,19.271,11.726c0.198,14.997,0.612,29.998,1.118,44.997c-1.149-0.273-3.366-1.021-3.366-1.021  s-8.207-4.195-11.351-6.365c-1.395-1.033-2.765-2.098-4.089-3.207c-5.753-4.819-11.38-10.07-15.529-16.374  c-2.168-3.294-3.862-6.813-4.923-10.607c6.118-7.581-2.001-20.373-2.001-20.373s-4.87,6.683-4.903,7.045  c-0.119-0.139-1.493-2.539-3.49-3.556c-4.499-2.291-11.716-4.155-11.716-4.155s-0.264,13.64,11.695,17.263  c0.915,0.099,3.433,0.124,3.433,0.124s1.957,5.323,2.057,5.474c0.111,0.338,4.228,9.369,6.208,12.264  c-4.265-1.092-8.529-2.184-12.793-3.275C22.402,110.1,0,114.298,0,114.298s12.982,17.083,23.016,10.777  c4.276,1.095,15.699,3.693,16.537,3.894c0.317,0.084,0.634,0.168,0.95,0.257c0.371,0.42,0.722,0.858,1.104,1.268  c5.497,5.913,11.872,11.492,18.721,15.784c4.007,2.511,8.404,4.498,13.057,5.427c0.156,0.031,0.313,0.047,0.468,0.053  c0.984,27.894,2.273,55.775,3.268,83.609h9.999c-1.042-29.143-2.412-58.338-3.409-87.544c8.981-7.405,22.48-23.894,22.48-23.894  c0.505,0.108,2.297,1.219,3.096,1.512c10.523,3.862,23.133,0.776,31.923-6.045c14.435,0.566,20.601-12.57,20.601-12.57  L155.653,105.034z" style="fill:#020202;"/>
</svg></g><!--ITEM: Illustration component 5--><g transform="translate(3148.0 2420.0) rotate(0.0 -867.0 192.0)  scale(-17.439930803504076 16.873928900997495)"><svg width="99.427" height="22.757" viewBox="0.0 0.0 99.427 22.757"><g id="Layer_14-i5">
	<g>
		<path style="fill:#000000;" d="M47.55,22.757h-6.08c-0.015-0.027-0.029-0.053-0.044-0.087c-0.015-0.02-0.015-0.047-0.029-0.067    c-0.442-1.414-0.839-2.575-1.016-4.056v-0.053c-0.044-0.38-0.059-0.787-0.059-1.221c0-0.033,0-0.06-0.015-0.087    c0-0.507,0.015-1.054,0.074-1.661c0.044-0.547,0.088-1.121,0.162-1.701c0.133-0.934,0.324-1.901,0.589-2.896    c0.339-1.288,0.839-2.615,1.531-3.936c0-0.033,0.015-0.067,0.045-0.093c1.045-2.022,2.561-4.03,4.725-5.898    c-0.545,1.121-0.972,2.215-1.296,3.269c-0.015,0.02-0.029,0.047-0.029,0.067c-0.53,1.695-0.839,3.289-0.986,4.724    c-0.044,0.42-0.074,0.834-0.088,1.228c-0.133,2.649,0.221,4.61,0.397,5.444c0,0,0,0,0,0.007c0.029,0.16,0.059,0.28,0.074,0.354    c-0.869,1.501-0.029,3.523,0.883,5.01c0.339,0.554,0.677,1.034,0.957,1.394v0.007C47.432,22.597,47.491,22.684,47.55,22.757z"/>
		<path style="fill:#000000;" d="M42.118,21.823c-0.059,0.32-0.309,0.607-0.692,0.847c-0.044,0.033-0.088,0.06-0.147,0.087H34.3    c-0.795-0.34-1.266-0.841-1.163-1.394c0.427-1.408,0.677-2.769,0.78-4.083c0.074-0.827,0.088-1.635,0.059-2.415    c-0.059-1.361-0.265-2.662-0.574-3.876c0,0,0,0,0-0.007C31.945,5.077,28.088,0.987,26.66,0c1.266,0.547,4.829,2.956,8.229,6.352    c2.164,2.162,4.269,4.73,5.653,7.472C41.867,16.392,42.574,19.121,42.118,21.823z"/>
		<path style="fill:#000000;" d="M85.059,4.804c-0.971,1.141-2.885,3.036-4.519,10.214c0,0.007,0,0.013,0,0.013    c-0.486,2.088-0.942,4.63-1.325,7.726h-7.257c0.221-1.508,0.662-2.962,1.266-4.343c0,0,0-0.007,0-0.013    C76.241,11.369,83.219,6.065,85.059,4.804z"/>
		<path style="fill:#000000;" d="M68.218,4.677c-0.824,1.161-2.488,3.089-3.239,10.208c-0.221,2.122-0.368,4.71-0.383,7.873h-7.214    c0.059-2.008,0.53-3.936,1.251-5.738C61.137,10.681,66.643,5.891,68.218,4.677z"/>
		<path style="fill:#000000;" d="M99.427,11.415c-1.457,0.701-7.552,4.537-8.994,11.008c-0.015,0.12-0.088,0.233-0.206,0.334H85.56    c-0.221-0.18-0.324-0.407-0.25-0.64c0.235-0.721,0.618-1.414,1.089-2.082C89.697,15.258,97.911,11.862,99.427,11.415z"/>
		<path style="fill:#000000;" d="M60.534,22.717l-0.53,0.04h-6.757c-1.222-3.683-0.971-7.199-0.147-10.181    c1.178-4.283,3.504-7.459,4.343-8.453c-0.441,1.348-1.575,3.703,1.193,12.896C59.121,18.681,59.753,20.569,60.534,22.717z"/>
		<path style="fill:#000000;" d="M69.484,15.839c-0.368,1.801-0.53,3.843-0.368,6.151c0.029,0.28-0.206,0.554-0.589,0.767h-6.257    c-0.25-0.153-0.383-0.34-0.368-0.54c0.103-2.435,1.355-4.984,3.077-7.332c3.371-4.617,8.568-8.493,10.614-9.414    C74.313,6.472,70.721,9.747,69.484,15.839z"/>
		<path style="fill:#000000;" d="M88.695,9.047c-1.192,0.834-4.769,3.689-6.227,9.207c-0.324,1.221-0.544,2.575-0.618,4.063    c0,0.153-0.103,0.307-0.28,0.44h-5.403c-0.147-0.12-0.221-0.254-0.192-0.394c0.412-2.495,2.311-5.097,4.564-7.332    c0,0,0-0.007,0-0.013C83.558,12.016,87.179,9.661,88.695,9.047z"/>
		<path style="fill:#000000;" d="M73.547,21.99c0.088,0.294-0.103,0.56-0.471,0.767h-5.123c-0.25-0.167-0.397-0.36-0.427-0.581    c-0.25-2.255,0.618-4.417,1.958-6.338c2.767-3.963,7.537-6.879,8.7-7.399c-1.104,0.801-4.725,4.417-4.961,9.961    c0,0.007,0,0.013,0,0.013C73.179,19.535,73.267,20.729,73.547,21.99z"/>
		<path style="fill:#000000;" d="M54.748,22.357c-0.015,0.147-0.103,0.28-0.265,0.4h-4.976c0.544-0.914,2.149-3.923,0.648-5.804    c0.015-0.2,0.044-0.814-0.029-1.741c-0.176-2.248-0.927-6.358-4.019-10.875c-0.044-0.06-0.074-0.113-0.118-0.173    c0.044,0.033,0.103,0.073,0.147,0.107c3.577,2.549,5.683,5.517,6.963,8.306c0.603,1.294,1.03,2.555,1.34,3.716    C55.204,19.034,54.969,20.436,54.748,22.357z"/>
		<path style="fill:#000000;" d="M52.143,22.237c-0.044,0.194-0.177,0.374-0.398,0.52h-4.99c-0.427-0.227-0.663-0.534-0.619-0.834    c0.088-0.28,0.177-0.554,0.251-0.821c0.25-0.921,0.397-1.801,0.471-2.642c0.309-3.376-0.677-6.138-1.825-8.173    c-0.854-1.528-1.796-2.642-2.37-3.296c-0.162-0.16-0.28-0.294-0.368-0.4c0.103,0.073,0.251,0.173,0.413,0.307    c0.574,0.434,1.443,1.188,2.414,2.162c1.619,1.601,3.562,3.796,5.005,6.151C51.539,17.533,52.481,20.015,52.143,22.237z"/>
		<path style="fill:#000000;" d="M92.626,9.774c-1.237,0.867-5.167,4.023-6.227,10.261c-0.133,0.734-0.221,1.508-0.265,2.328    c0,0.14-0.088,0.274-0.236,0.394h-5.197c-0.118-0.107-0.176-0.227-0.147-0.354c0.235-1.381,0.942-2.795,1.913-4.15    C85.398,14.144,90.742,10.528,92.626,9.774z"/>
		<path style="fill:#000000;" d="M47.432,22.264c-0.015,0.08-0.044,0.16-0.088,0.233v0.007c-0.044,0.087-0.118,0.173-0.221,0.254    h-6.581c-0.044-0.013-0.073-0.027-0.073-0.047c-0.354-0.22-0.545-0.494-0.515-0.781c0.177-0.714,0.294-1.414,0.353-2.095    c0.015-0.007,0-0.007,0-0.013c0.059-0.434,0.074-0.854,0.074-1.274v-0.053c0-0.414-0.029-0.821-0.059-1.221    c0-0.033,0-0.06-0.015-0.087c-0.618-6.225-5.388-10.675-6.934-11.602c0.339,0.127,0.854,0.387,1.516,0.767    c1.604,0.927,3.989,2.542,6.242,4.577c1.604,1.428,3.135,3.062,4.298,4.804c0,0,0,0,0,0.007c0.589,0.887,1.089,1.795,1.428,2.722    C47.344,19.715,47.564,20.996,47.432,22.264z"/>
		<path style="fill:#000000;" d="M35.861,21.496c0.074,0.427-0.192,0.827-0.721,1.134c-0.074,0.047-0.147,0.087-0.235,0.127h-6.742    v-0.007c-0.603-0.274-1.001-0.64-1.089-1.014c-0.059-1.148-0.221-2.255-0.442-3.316C24.408,7.933,15.104,1.688,13.028,0.167    C15.56,1.314,28.706,9.334,33.918,17.28c0.368,0.54,0.692,1.087,0.957,1.628c0,0,0,0,0,0.007c0,0,0.015,0.007,0,0.013    c0.015,0,0.015,0.007,0,0.02C35.331,19.802,35.669,20.662,35.861,21.496z"/>
		<path style="fill:#000000;" d="M28.338,22.364c0.029,0.14-0.029,0.267-0.176,0.387v0.007h-5.417    c-0.177-0.133-0.28-0.287-0.28-0.44c-0.074-1.641-0.339-3.122-0.722-4.437c-1.516-5.271-4.961-8.019-6.124-8.833    c2.046,0.827,7.994,4.864,11.011,9.374C27.499,19.715,28.118,21.056,28.338,22.364z"/>
		<path style="fill:#000000;" d="M20.198,22.144c0,0.207-0.118,0.394-0.324,0.554v0.007c-0.029,0.02-0.044,0.033-0.073,0.053h-5.079    c-0.339-0.2-0.559-0.447-0.559-0.694c0.309-2.088,0.133-3.99-0.309-5.684c-1.354-5.251-5.329-8.54-6.345-9.454    c1.678,0.914,10.584,7.532,12.381,13.423c0,0.007,0,0.007,0,0.007C20.08,20.963,20.183,21.556,20.198,22.144z"/>
		<path style="fill:#000000;" d="M12.425,22.757H8.583c-0.044-0.047-0.074-0.087-0.088-0.133c-1.516-5.718-7.287-8.9-8.494-9.621    c1.163,0.434,6.89,3.303,10.275,6.485c1.001,0.941,1.811,1.908,2.223,2.849C12.557,22.484,12.528,22.631,12.425,22.757z"/>
		<path style="fill:#000000;" d="M40.807,22.144c0,0.207-0.133,0.4-0.339,0.567c-0.015,0.013-0.044,0.033-0.059,0.047h-5.079    c-0.088-0.04-0.147-0.08-0.191-0.127c-0.235-0.173-0.368-0.367-0.368-0.567c0.162-1.094,0.191-2.135,0.103-3.116    c0.015-0.013,0.015-0.02,0-0.02c0.015-0.007,0-0.013,0-0.013c0-0.007,0-0.007,0-0.007c-0.103-1.474-0.427-2.822-0.898-4.043    c-1.649-4.37-4.961-7.119-5.859-7.939c0.751,0.407,2.93,1.948,5.285,4.056c0,0.007,0,0.007,0,0.007    c2.767,2.475,5.756,5.731,6.904,8.833c0,0.007,0.015,0.007,0,0.013C40.601,20.616,40.778,21.396,40.807,22.144z"/>
		<path style="fill:#000000;" d="M16.296,22.137c0,0.233-0.147,0.447-0.398,0.621h-5.123c-0.324-0.187-0.515-0.42-0.515-0.681    c0.088-0.894,0.088-1.761,0.014-2.589C9.657,13.25,4.637,8.88,3.18,8.046c1.443,0.52,7.287,3.97,10.673,8.333    C15.251,18.194,16.238,20.162,16.296,22.137z"/>
		<path style="fill:#000000;" d="M23.819,22.517c0,0.087-0.044,0.167-0.118,0.24h-3.769c-0.029-0.013-0.044-0.033-0.059-0.053    v-0.007c-0.073-0.08-0.118-0.173-0.118-0.26c0.118-0.727,0.162-1.421,0.133-2.082c0,0,0,0,0-0.007    c-0.192-4.543-3.592-7.412-4.343-8.126c0.795,0.447,4.019,2.862,6.198,5.658C22.936,19.401,23.804,21.029,23.819,22.517z"/>
	</g>
</g>
<g id="Isolation_Mode-i5">
</g>
</svg></g><!--ITEM: Illustration component 6--><g transform="translate(628.0 246.0) rotate(45.00509893201091 217.0 163.0)  scale(4.509559434746468 4.48961604142566)"><svg width="96.24" height="72.612" viewBox="0.0 0.0 96.24 72.612"><g id="&#1057;&#1083;&#1086;&#1081;_2-i6" data-name="&#1057;&#1083;&#1086;&#1081; 2"><g id="&#1057;&#1083;&#1086;&#1081;_3-i6" data-name="&#1057;&#1083;&#1086;&#1081; 3"><path d="M36.22,67.261c-4.767,6.48-13.093,6.875-18.888,2.261s-9.484-12.732-2.1-18.973S42.1,33.138,46.881,38.479C49.364,41.255,42.6,58.59,36.22,67.261Z" fill="#8e231d"/><path d="M60.116,67.261C64.884,73.741,73.21,74.136,79,69.522s9.485-12.732,2.1-18.973S54.234,33.138,49.455,38.479C46.972,41.255,53.737,58.59,60.116,67.261Z" fill="#8e231d"/><path d="M0,18.449C.006,7.058,48.12,9.214,48.12,39.806c0,0-27.672,17.73-39.676,5.037C5.1,41.3,10.223,35.824,9.766,32.687,8.749,25.7,0,23.822,0,18.449Z" fill="#e33b2b"/><path d="M96.24,18.449C96.234,7.058,48.12,9.214,48.12,39.806c0,0,27.672,17.73,39.676,5.037,3.347-3.539-1.779-9.019-1.322-12.156C87.491,25.7,96.243,23.822,96.24,18.449Z" fill="#e33b2b"/><circle cx="48.12" cy="18.84" r="4.992" fill="#000000"/><path d="M51.93,40.126c0,13.861-1.706,30.279-3.81,30.279s-3.81-16.418-3.81-30.279S46.016,20.21,48.12,20.21,51.93,26.265,51.93,40.126Z" fill="#000000"/><path d="M46.556,16.155C43.517,8.077,33.939,7.147,33.939,0" fill="none" stroke="#000" stroke-miterlimit="10" stroke-width="2"/><path d="M49.972,16.155C53.01,8.077,62.589,7.147,62.589,0" fill="none" stroke="#000" stroke-miterlimit="10" stroke-width="2"/></g></g></svg></g><!--ITEM: Illustration background 7--><g transform="translate(-80.0 3374.0) rotate(0.0 1559.0 -294.0)  scale(3.089144303065069 -3.0853670694784787)"><svg width="1009.341" height="190.577" viewBox="0.0 0.0 1009.341 190.577"><g>
	<path style="fill:#010101;" d="M717.05,30.651c2.711-4.862,7.152-9.192,7.152-9.192l-9.201,4.904V13.755l-6.756,12.607L693.611,0   l7.925,24.485c-5.608-4.119-15.85-9.629-15.85-9.629c7.11,7.282,11.104,12.428,13.353,15.905l-286.253,1.75l5.491-10.752   l-9.191,7.104l-1.277-11.189l-4.085,12.255l-7.149-18.638l2.553,19.532l-9.191-5.745c0,0,4.768,4.103,6.706,7.532L0,35.036v155.542   h1009.341V28.863L717.05,30.651z"/>
</g>
</svg></g><!--ITEM: Illustration component 8--><g transform="translate(948.0 724.0) rotate(0.0 470.0 473.0)  scale(5.056481979558902 5.086021505376344)"><svg width="185.9" height="186.0" viewBox="0.0 0.0 185.9 186.0"><g>
	<path d="M185.9,92.8c0,3.4-0.2,6.8-0.5,10.1c-0.1,0.7-0.2,1.5-0.3,2.2c-0.02,0.12-0.03,0.24-0.06,0.37   c-0.07,0.58-0.16,1.17-0.24,1.83c-0.3,1.9-0.7,3.8-1.1,5.7c-2.4,10.7-6.6,20.7-12.3,29.7c-0.3,0.5-0.7,1.1-1,1.6l-3.6,5.1   c-0.19,0.25-0.39,0.5-0.6,0.75c-2.12,2.72-4.42,5.28-6.8,7.75c-3.5,3.5-7.2,6.8-11.2,9.8c-0.7,0.5-1.4,1-2.2,1.6   c-0.2,0.2-0.4,0.3-0.7,0.5c-2.36,1.63-4.81,3.15-7.33,4.55c-2.39,1.33-4.85,2.56-7.38,3.67c-3.02,1.34-6.12,2.52-9.3,3.53   c-0.23,0.07-0.47,0.15-0.7,0.22c-0.64,0.2-1.28,0.39-1.93,0.57c-2.35,0.68-4.74,1.27-7.16,1.76c-2.4,0.5-4.8,0.9-7.3,1.2   c-1.34,0.16-2.62,0.32-3.94,0.42c-0.35,0.03-0.7,0.06-1.06,0.08c-2.1,0.1-4.2,0.2-6.3,0.2h-1.3c-2.93-0.04-5.83-0.21-8.69-0.52   c-20.86-2.21-39.69-11.36-54.11-25.08c-2.1-2-4.1-4.1-6-6.3c-4.4-5-8.3-10.6-11.5-16.5c-1.9-3.5-3.6-7.1-5-10.8   c-2.2-5.7-3.9-11.6-4.9-17.7c-0.07-0.33-0.13-0.67-0.18-1.01c-0.29-1.69-0.47-3.44-0.72-5.19C0.2,99.6,0,96.3,0,93v-1.9   c0.13-7.76,1.23-15.29,3.2-22.46c1.01-3.71,2.26-7.32,3.71-10.82c0.22-0.54,0.45-1.08,0.69-1.62c0.46-1.08,0.94-2.16,1.45-3.22   c1.26-2.67,2.68-5.28,4.25-7.78c0.8-1.3,1.6-2.7,2.5-4c0.98-1.44,1.99-2.86,3.05-4.24c2.41-3.17,5-6.18,7.77-9.02   c1.69-1.75,3.46-3.42,5.28-5.04c0.6-0.5,1.3-1.1,1.9-1.6c0.12-0.09,0.24-0.19,0.35-0.28c0.38-0.31,0.74-0.61,1.05-0.92   c0.3-0.2,0.6-0.5,0.9-0.7c0.6-0.5,1.2-0.9,1.8-1.4c0.6-0.4,1.2-0.9,1.9-1.3c0.05-0.04,0.11-0.07,0.17-0.11   c6.12-4.3,12.75-7.84,19.81-10.55c2.67-1.02,5.4-1.93,8.19-2.7c1.95-0.54,3.92-1.02,5.93-1.44c2.9-0.6,5.8-1.1,8.8-1.4   c1.3-0.1,2.5-0.3,3.8-0.3h0.4c0.4,0,0.8-0.1,1.2-0.1c0.6,0,1.1-0.1,1.6-0.1h3.2c2.9,0,5.8,0.1,8.7,0.4c6.5,0.6,12.7,1.9,18.7,3.7   c10.9,3.4,20.9,8.7,29.7,15.5c0.1,0,0.1,0.1,0.2,0.1c1.2,0.9,2.4,1.9,3.6,2.9c1.8,1.5,3.5,3.2,5.2,4.9c0.5,0.5,0.9,0.9,1.3,1.4   c1.8,1.8,3.4,3.8,5,5.7c1.7,2.1,3.2,4.2,4.7,6.4c0.6,1,1.3,1.9,1.9,2.9c0.2,0.3,0.3,0.5,0.5,0.8c0.9,1.5,1.8,3.1,2.6,4.6   c0,0.1,0.1,0.2,0.1,0.2c0.9,1.6,1.7,3.3,2.4,5c0.4,0.9,0.8,1.8,1.2,2.7c0.5,1.1,0.9,2.2,1.3,3.3c0.9,2.4,1.7,4.9,2.4,7.5   c0.5,1.9,1,3.7,1.4,5.6c0.2,0.8,0.3,1.6,0.5,2.3c0.1,0.8,0.3,1.6,0.4,2.4c0.1,0.6,0.2,1.2,0.3,1.9c0,0.2,0.1,0.5,0.1,0.7   c0.1,0.7,0.2,1.5,0.3,2.2c0.1,0.7,0.2,1.5,0.2,2.2v0.5c0,0.5,0.1,1,0.1,1.6v1.2c0,0.6,0.1,1.2,0.1,1.8c0,0.1,0,0.1,0,0.2v1.6   C185.9,92.4,185.9,92.6,185.9,92.8z" style="fill:#8F241E;"/>
	<path d="M160.3,131.158l-13.988,17.934l-12.553,11.597l-3.168,17.331c-3.02,1.34-6.12,2.52-9.3,3.53   c-0.23,0.07-0.47,0.15-0.7,0.22c-0.64,0.2-1.28,0.39-1.93,0.57l-7.82-29.35l-25.32-23.7l19.52-37.88l7.98-1.47l19.64,18.05   l26.201,9.251L160.3,131.158z" style="fill:#E23E2C;"/>
	<path d="M97.259,55.03l-27.36,30.4l10.68,24.01l-4.19,4.02l-40.26-17.94L9.049,52.98c1.26-2.67,2.68-5.28,4.25-7.78   c0.8-1.3,1.6-2.7,2.5-4c0.98-1.44,1.99-2.86,3.05-4.24c2.41-3.17,5-6.18,7.77-9.02c1.69-1.75,3.46-3.42,5.28-5.04   c0.6-0.5,1.3-1.1,1.9-1.6c0.12-0.09,0.24-0.19,0.35-0.28c0.38-0.31,0.74-0.61,1.05-0.92c0.3-0.2,0.6-0.5,0.9-0.7   c0.6-0.5,1.2-0.9,1.8-1.4c0.6-0.4,1.2-0.9,1.9-1.3c0.05-0.04,0.11-0.07,0.17-0.11c7.12-3.73,69.92,24.48,69.92,24.48L97.259,55.03z   " style="fill:#E23E2C;"/>
	<polygon points="91.555,118.847 89.367,124.968 69.796,110.522 77.36,102.204  " style="fill:#E23E2C;"/>
	<polygon points="99.241,36.409 71.92,39.348 64.928,20.604 92.643,12.843  " style="fill:#8F241E;"/>
	<polygon points="109.889,41.07 84.443,40.553 81.182,27.82 105.585,25.415  " style="fill:#E23E2C;"/>
	<polygon points="68.031,17.763 61.784,31.256 42.844,16.292 62.817,11.828  " style="fill:#E23E2C;"/>
	<polygon points="110.837,152.986 86.77,136.259 85.516,129.294 89.974,122.879 118.151,142.461  " style="fill:#E23E2C;"/>
	<polygon points="84.247,83.212 81.565,92.89 65.269,77.456 77.203,64.855  " style="fill:#E23E2C;"/>
</g>
</svg></g><!--ITEM: Illustration component 9--><g transform="translate(2404.0 2460.0) rotate(0.0 -949.0 210.0) translate(-782.0 0.0) scale(-19.08938215977551 18.45585973546601)"><svg width="19.592043203371972" height="22.757" viewBox="40.96518124341413 0.0 19.592043203371972 22.757"><g id="Layer_14-i9">
	<g>
		<path style="fill:#000000;" d="M47.55,22.757h-6.08c-0.015-0.027-0.029-0.053-0.044-0.087c-0.015-0.02-0.015-0.047-0.029-0.067    c-0.442-1.414-0.839-2.575-1.016-4.056v-0.053c-0.044-0.38-0.059-0.787-0.059-1.221c0-0.033,0-0.06-0.015-0.087    c0-0.507,0.015-1.054,0.074-1.661c0.044-0.547,0.088-1.121,0.162-1.701c0.133-0.934,0.324-1.901,0.589-2.896    c0.339-1.288,0.839-2.615,1.531-3.936c0-0.033,0.015-0.067,0.045-0.093c1.045-2.022,2.561-4.03,4.725-5.898    c-0.545,1.121-0.972,2.215-1.296,3.269c-0.015,0.02-0.029,0.047-0.029,0.067c-0.53,1.695-0.839,3.289-0.986,4.724    c-0.044,0.42-0.074,0.834-0.088,1.228c-0.133,2.649,0.221,4.61,0.397,5.444c0,0,0,0,0,0.007c0.029,0.16,0.059,0.28,0.074,0.354    c-0.869,1.501-0.029,3.523,0.883,5.01c0.339,0.554,0.677,1.034,0.957,1.394v0.007C47.432,22.597,47.491,22.684,47.55,22.757z"/>
		<path style="fill:#000000;" d="M42.118,21.823c-0.059,0.32-0.309,0.607-0.692,0.847c-0.044,0.033-0.088,0.06-0.147,0.087H34.3    c-0.795-0.34-1.266-0.841-1.163-1.394c0.427-1.408,0.677-2.769,0.78-4.083c0.074-0.827,0.088-1.635,0.059-2.415    c-0.059-1.361-0.265-2.662-0.574-3.876c0,0,0,0,0-0.007C31.945,5.077,28.088,0.987,26.66,0c1.266,0.547,4.829,2.956,8.229,6.352    c2.164,2.162,4.269,4.73,5.653,7.472C41.867,16.392,42.574,19.121,42.118,21.823z"/>
		<path style="fill:#000000;" d="M85.059,4.804c-0.971,1.141-2.885,3.036-4.519,10.214c0,0.007,0,0.013,0,0.013    c-0.486,2.088-0.942,4.63-1.325,7.726h-7.257c0.221-1.508,0.662-2.962,1.266-4.343c0,0,0-0.007,0-0.013    C76.241,11.369,83.219,6.065,85.059,4.804z"/>
		<path style="fill:#000000;" d="M68.218,4.677c-0.824,1.161-2.488,3.089-3.239,10.208c-0.221,2.122-0.368,4.71-0.383,7.873h-7.214    c0.059-2.008,0.53-3.936,1.251-5.738C61.137,10.681,66.643,5.891,68.218,4.677z"/>
		<path style="fill:#000000;" d="M99.427,11.415c-1.457,0.701-7.552,4.537-8.994,11.008c-0.015,0.12-0.088,0.233-0.206,0.334H85.56    c-0.221-0.18-0.324-0.407-0.25-0.64c0.235-0.721,0.618-1.414,1.089-2.082C89.697,15.258,97.911,11.862,99.427,11.415z"/>
		<path style="fill:#000000;" d="M60.534,22.717l-0.53,0.04h-6.757c-1.222-3.683-0.971-7.199-0.147-10.181    c1.178-4.283,3.504-7.459,4.343-8.453c-0.441,1.348-1.575,3.703,1.193,12.896C59.121,18.681,59.753,20.569,60.534,22.717z"/>
		<path style="fill:#000000;" d="M69.484,15.839c-0.368,1.801-0.53,3.843-0.368,6.151c0.029,0.28-0.206,0.554-0.589,0.767h-6.257    c-0.25-0.153-0.383-0.34-0.368-0.54c0.103-2.435,1.355-4.984,3.077-7.332c3.371-4.617,8.568-8.493,10.614-9.414    C74.313,6.472,70.721,9.747,69.484,15.839z"/>
		<path style="fill:#000000;" d="M88.695,9.047c-1.192,0.834-4.769,3.689-6.227,9.207c-0.324,1.221-0.544,2.575-0.618,4.063    c0,0.153-0.103,0.307-0.28,0.44h-5.403c-0.147-0.12-0.221-0.254-0.192-0.394c0.412-2.495,2.311-5.097,4.564-7.332    c0,0,0-0.007,0-0.013C83.558,12.016,87.179,9.661,88.695,9.047z"/>
		<path style="fill:#000000;" d="M73.547,21.99c0.088,0.294-0.103,0.56-0.471,0.767h-5.123c-0.25-0.167-0.397-0.36-0.427-0.581    c-0.25-2.255,0.618-4.417,1.958-6.338c2.767-3.963,7.537-6.879,8.7-7.399c-1.104,0.801-4.725,4.417-4.961,9.961    c0,0.007,0,0.013,0,0.013C73.179,19.535,73.267,20.729,73.547,21.99z"/>
		<path style="fill:#000000;" d="M54.748,22.357c-0.015,0.147-0.103,0.28-0.265,0.4h-4.976c0.544-0.914,2.149-3.923,0.648-5.804    c0.015-0.2,0.044-0.814-0.029-1.741c-0.176-2.248-0.927-6.358-4.019-10.875c-0.044-0.06-0.074-0.113-0.118-0.173    c0.044,0.033,0.103,0.073,0.147,0.107c3.577,2.549,5.683,5.517,6.963,8.306c0.603,1.294,1.03,2.555,1.34,3.716    C55.204,19.034,54.969,20.436,54.748,22.357z"/>
		<path style="fill:#000000;" d="M52.143,22.237c-0.044,0.194-0.177,0.374-0.398,0.52h-4.99c-0.427-0.227-0.663-0.534-0.619-0.834    c0.088-0.28,0.177-0.554,0.251-0.821c0.25-0.921,0.397-1.801,0.471-2.642c0.309-3.376-0.677-6.138-1.825-8.173    c-0.854-1.528-1.796-2.642-2.37-3.296c-0.162-0.16-0.28-0.294-0.368-0.4c0.103,0.073,0.251,0.173,0.413,0.307    c0.574,0.434,1.443,1.188,2.414,2.162c1.619,1.601,3.562,3.796,5.005,6.151C51.539,17.533,52.481,20.015,52.143,22.237z"/>
		<path style="fill:#000000;" d="M92.626,9.774c-1.237,0.867-5.167,4.023-6.227,10.261c-0.133,0.734-0.221,1.508-0.265,2.328    c0,0.14-0.088,0.274-0.236,0.394h-5.197c-0.118-0.107-0.176-0.227-0.147-0.354c0.235-1.381,0.942-2.795,1.913-4.15    C85.398,14.144,90.742,10.528,92.626,9.774z"/>
		<path style="fill:#000000;" d="M47.432,22.264c-0.015,0.08-0.044,0.16-0.088,0.233v0.007c-0.044,0.087-0.118,0.173-0.221,0.254    h-6.581c-0.044-0.013-0.073-0.027-0.073-0.047c-0.354-0.22-0.545-0.494-0.515-0.781c0.177-0.714,0.294-1.414,0.353-2.095    c0.015-0.007,0-0.007,0-0.013c0.059-0.434,0.074-0.854,0.074-1.274v-0.053c0-0.414-0.029-0.821-0.059-1.221    c0-0.033,0-0.06-0.015-0.087c-0.618-6.225-5.388-10.675-6.934-11.602c0.339,0.127,0.854,0.387,1.516,0.767    c1.604,0.927,3.989,2.542,6.242,4.577c1.604,1.428,3.135,3.062,4.298,4.804c0,0,0,0,0,0.007c0.589,0.887,1.089,1.795,1.428,2.722    C47.344,19.715,47.564,20.996,47.432,22.264z"/>
		<path style="fill:#000000;" d="M35.861,21.496c0.074,0.427-0.192,0.827-0.721,1.134c-0.074,0.047-0.147,0.087-0.235,0.127h-6.742    v-0.007c-0.603-0.274-1.001-0.64-1.089-1.014c-0.059-1.148-0.221-2.255-0.442-3.316C24.408,7.933,15.104,1.688,13.028,0.167    C15.56,1.314,28.706,9.334,33.918,17.28c0.368,0.54,0.692,1.087,0.957,1.628c0,0,0,0,0,0.007c0,0,0.015,0.007,0,0.013    c0.015,0,0.015,0.007,0,0.02C35.331,19.802,35.669,20.662,35.861,21.496z"/>
		<path style="fill:#000000;" d="M28.338,22.364c0.029,0.14-0.029,0.267-0.176,0.387v0.007h-5.417    c-0.177-0.133-0.28-0.287-0.28-0.44c-0.074-1.641-0.339-3.122-0.722-4.437c-1.516-5.271-4.961-8.019-6.124-8.833    c2.046,0.827,7.994,4.864,11.011,9.374C27.499,19.715,28.118,21.056,28.338,22.364z"/>
		<path style="fill:#000000;" d="M20.198,22.144c0,0.207-0.118,0.394-0.324,0.554v0.007c-0.029,0.02-0.044,0.033-0.073,0.053h-5.079    c-0.339-0.2-0.559-0.447-0.559-0.694c0.309-2.088,0.133-3.99-0.309-5.684c-1.354-5.251-5.329-8.54-6.345-9.454    c1.678,0.914,10.584,7.532,12.381,13.423c0,0.007,0,0.007,0,0.007C20.08,20.963,20.183,21.556,20.198,22.144z"/>
		<path style="fill:#000000;" d="M12.425,22.757H8.583c-0.044-0.047-0.074-0.087-0.088-0.133c-1.516-5.718-7.287-8.9-8.494-9.621    c1.163,0.434,6.89,3.303,10.275,6.485c1.001,0.941,1.811,1.908,2.223,2.849C12.557,22.484,12.528,22.631,12.425,22.757z"/>
		<path style="fill:#000000;" d="M40.807,22.144c0,0.207-0.133,0.4-0.339,0.567c-0.015,0.013-0.044,0.033-0.059,0.047h-5.079    c-0.088-0.04-0.147-0.08-0.191-0.127c-0.235-0.173-0.368-0.367-0.368-0.567c0.162-1.094,0.191-2.135,0.103-3.116    c0.015-0.013,0.015-0.02,0-0.02c0.015-0.007,0-0.013,0-0.013c0-0.007,0-0.007,0-0.007c-0.103-1.474-0.427-2.822-0.898-4.043    c-1.649-4.37-4.961-7.119-5.859-7.939c0.751,0.407,2.93,1.948,5.285,4.056c0,0.007,0,0.007,0,0.007    c2.767,2.475,5.756,5.731,6.904,8.833c0,0.007,0.015,0.007,0,0.013C40.601,20.616,40.778,21.396,40.807,22.144z"/>
		<path style="fill:#000000;" d="M16.296,22.137c0,0.233-0.147,0.447-0.398,0.621h-5.123c-0.324-0.187-0.515-0.42-0.515-0.681    c0.088-0.894,0.088-1.761,0.014-2.589C9.657,13.25,4.637,8.88,3.18,8.046c1.443,0.52,7.287,3.97,10.673,8.333    C15.251,18.194,16.238,20.162,16.296,22.137z"/>
		<path style="fill:#000000;" d="M23.819,22.517c0,0.087-0.044,0.167-0.118,0.24h-3.769c-0.029-0.013-0.044-0.033-0.059-0.053    v-0.007c-0.073-0.08-0.118-0.173-0.118-0.26c0.118-0.727,0.162-1.421,0.133-2.082c0,0,0,0,0-0.007    c-0.192-4.543-3.592-7.412-4.343-8.126c0.795,0.447,4.019,2.862,6.198,5.658C22.936,19.401,23.804,21.029,23.819,22.517z"/>
	</g>
</g>
<g id="Isolation_Mode-i9">
</g>
</svg></g><!--ITEM: Illustration component 10--><g transform="translate(-140.0 2448.0) rotate(0.0 782.0 173.0)  scale(15.730133665905639 15.204113020169617)"><svg width="99.427" height="22.757" viewBox="0.0 0.0 99.427 22.757"><g id="Layer_14-i10">
	<g>
		<path style="fill:#000000;" d="M47.55,22.757h-6.08c-0.015-0.027-0.029-0.053-0.044-0.087c-0.015-0.02-0.015-0.047-0.029-0.067    c-0.442-1.414-0.839-2.575-1.016-4.056v-0.053c-0.044-0.38-0.059-0.787-0.059-1.221c0-0.033,0-0.06-0.015-0.087    c0-0.507,0.015-1.054,0.074-1.661c0.044-0.547,0.088-1.121,0.162-1.701c0.133-0.934,0.324-1.901,0.589-2.896    c0.339-1.288,0.839-2.615,1.531-3.936c0-0.033,0.015-0.067,0.045-0.093c1.045-2.022,2.561-4.03,4.725-5.898    c-0.545,1.121-0.972,2.215-1.296,3.269c-0.015,0.02-0.029,0.047-0.029,0.067c-0.53,1.695-0.839,3.289-0.986,4.724    c-0.044,0.42-0.074,0.834-0.088,1.228c-0.133,2.649,0.221,4.61,0.397,5.444c0,0,0,0,0,0.007c0.029,0.16,0.059,0.28,0.074,0.354    c-0.869,1.501-0.029,3.523,0.883,5.01c0.339,0.554,0.677,1.034,0.957,1.394v0.007C47.432,22.597,47.491,22.684,47.55,22.757z"/>
		<path style="fill:#000000;" d="M42.118,21.823c-0.059,0.32-0.309,0.607-0.692,0.847c-0.044,0.033-0.088,0.06-0.147,0.087H34.3    c-0.795-0.34-1.266-0.841-1.163-1.394c0.427-1.408,0.677-2.769,0.78-4.083c0.074-0.827,0.088-1.635,0.059-2.415    c-0.059-1.361-0.265-2.662-0.574-3.876c0,0,0,0,0-0.007C31.945,5.077,28.088,0.987,26.66,0c1.266,0.547,4.829,2.956,8.229,6.352    c2.164,2.162,4.269,4.73,5.653,7.472C41.867,16.392,42.574,19.121,42.118,21.823z"/>
		<path style="fill:#000000;" d="M85.059,4.804c-0.971,1.141-2.885,3.036-4.519,10.214c0,0.007,0,0.013,0,0.013    c-0.486,2.088-0.942,4.63-1.325,7.726h-7.257c0.221-1.508,0.662-2.962,1.266-4.343c0,0,0-0.007,0-0.013    C76.241,11.369,83.219,6.065,85.059,4.804z"/>
		<path style="fill:#000000;" d="M68.218,4.677c-0.824,1.161-2.488,3.089-3.239,10.208c-0.221,2.122-0.368,4.71-0.383,7.873h-7.214    c0.059-2.008,0.53-3.936,1.251-5.738C61.137,10.681,66.643,5.891,68.218,4.677z"/>
		<path style="fill:#000000;" d="M99.427,11.415c-1.457,0.701-7.552,4.537-8.994,11.008c-0.015,0.12-0.088,0.233-0.206,0.334H85.56    c-0.221-0.18-0.324-0.407-0.25-0.64c0.235-0.721,0.618-1.414,1.089-2.082C89.697,15.258,97.911,11.862,99.427,11.415z"/>
		<path style="fill:#000000;" d="M60.534,22.717l-0.53,0.04h-6.757c-1.222-3.683-0.971-7.199-0.147-10.181    c1.178-4.283,3.504-7.459,4.343-8.453c-0.441,1.348-1.575,3.703,1.193,12.896C59.121,18.681,59.753,20.569,60.534,22.717z"/>
		<path style="fill:#000000;" d="M69.484,15.839c-0.368,1.801-0.53,3.843-0.368,6.151c0.029,0.28-0.206,0.554-0.589,0.767h-6.257    c-0.25-0.153-0.383-0.34-0.368-0.54c0.103-2.435,1.355-4.984,3.077-7.332c3.371-4.617,8.568-8.493,10.614-9.414    C74.313,6.472,70.721,9.747,69.484,15.839z"/>
		<path style="fill:#000000;" d="M88.695,9.047c-1.192,0.834-4.769,3.689-6.227,9.207c-0.324,1.221-0.544,2.575-0.618,4.063    c0,0.153-0.103,0.307-0.28,0.44h-5.403c-0.147-0.12-0.221-0.254-0.192-0.394c0.412-2.495,2.311-5.097,4.564-7.332    c0,0,0-0.007,0-0.013C83.558,12.016,87.179,9.661,88.695,9.047z"/>
		<path style="fill:#000000;" d="M73.547,21.99c0.088,0.294-0.103,0.56-0.471,0.767h-5.123c-0.25-0.167-0.397-0.36-0.427-0.581    c-0.25-2.255,0.618-4.417,1.958-6.338c2.767-3.963,7.537-6.879,8.7-7.399c-1.104,0.801-4.725,4.417-4.961,9.961    c0,0.007,0,0.013,0,0.013C73.179,19.535,73.267,20.729,73.547,21.99z"/>
		<path style="fill:#000000;" d="M54.748,22.357c-0.015,0.147-0.103,0.28-0.265,0.4h-4.976c0.544-0.914,2.149-3.923,0.648-5.804    c0.015-0.2,0.044-0.814-0.029-1.741c-0.176-2.248-0.927-6.358-4.019-10.875c-0.044-0.06-0.074-0.113-0.118-0.173    c0.044,0.033,0.103,0.073,0.147,0.107c3.577,2.549,5.683,5.517,6.963,8.306c0.603,1.294,1.03,2.555,1.34,3.716    C55.204,19.034,54.969,20.436,54.748,22.357z"/>
		<path style="fill:#000000;" d="M52.143,22.237c-0.044,0.194-0.177,0.374-0.398,0.52h-4.99c-0.427-0.227-0.663-0.534-0.619-0.834    c0.088-0.28,0.177-0.554,0.251-0.821c0.25-0.921,0.397-1.801,0.471-2.642c0.309-3.376-0.677-6.138-1.825-8.173    c-0.854-1.528-1.796-2.642-2.37-3.296c-0.162-0.16-0.28-0.294-0.368-0.4c0.103,0.073,0.251,0.173,0.413,0.307    c0.574,0.434,1.443,1.188,2.414,2.162c1.619,1.601,3.562,3.796,5.005,6.151C51.539,17.533,52.481,20.015,52.143,22.237z"/>
		<path style="fill:#000000;" d="M92.626,9.774c-1.237,0.867-5.167,4.023-6.227,10.261c-0.133,0.734-0.221,1.508-0.265,2.328    c0,0.14-0.088,0.274-0.236,0.394h-5.197c-0.118-0.107-0.176-0.227-0.147-0.354c0.235-1.381,0.942-2.795,1.913-4.15    C85.398,14.144,90.742,10.528,92.626,9.774z"/>
		<path style="fill:#000000;" d="M47.432,22.264c-0.015,0.08-0.044,0.16-0.088,0.233v0.007c-0.044,0.087-0.118,0.173-0.221,0.254    h-6.581c-0.044-0.013-0.073-0.027-0.073-0.047c-0.354-0.22-0.545-0.494-0.515-0.781c0.177-0.714,0.294-1.414,0.353-2.095    c0.015-0.007,0-0.007,0-0.013c0.059-0.434,0.074-0.854,0.074-1.274v-0.053c0-0.414-0.029-0.821-0.059-1.221    c0-0.033,0-0.06-0.015-0.087c-0.618-6.225-5.388-10.675-6.934-11.602c0.339,0.127,0.854,0.387,1.516,0.767    c1.604,0.927,3.989,2.542,6.242,4.577c1.604,1.428,3.135,3.062,4.298,4.804c0,0,0,0,0,0.007c0.589,0.887,1.089,1.795,1.428,2.722    C47.344,19.715,47.564,20.996,47.432,22.264z"/>
		<path style="fill:#000000;" d="M35.861,21.496c0.074,0.427-0.192,0.827-0.721,1.134c-0.074,0.047-0.147,0.087-0.235,0.127h-6.742    v-0.007c-0.603-0.274-1.001-0.64-1.089-1.014c-0.059-1.148-0.221-2.255-0.442-3.316C24.408,7.933,15.104,1.688,13.028,0.167    C15.56,1.314,28.706,9.334,33.918,17.28c0.368,0.54,0.692,1.087,0.957,1.628c0,0,0,0,0,0.007c0,0,0.015,0.007,0,0.013    c0.015,0,0.015,0.007,0,0.02C35.331,19.802,35.669,20.662,35.861,21.496z"/>
		<path style="fill:#000000;" d="M28.338,22.364c0.029,0.14-0.029,0.267-0.176,0.387v0.007h-5.417    c-0.177-0.133-0.28-0.287-0.28-0.44c-0.074-1.641-0.339-3.122-0.722-4.437c-1.516-5.271-4.961-8.019-6.124-8.833    c2.046,0.827,7.994,4.864,11.011,9.374C27.499,19.715,28.118,21.056,28.338,22.364z"/>
		<path style="fill:#000000;" d="M20.198,22.144c0,0.207-0.118,0.394-0.324,0.554v0.007c-0.029,0.02-0.044,0.033-0.073,0.053h-5.079    c-0.339-0.2-0.559-0.447-0.559-0.694c0.309-2.088,0.133-3.99-0.309-5.684c-1.354-5.251-5.329-8.54-6.345-9.454    c1.678,0.914,10.584,7.532,12.381,13.423c0,0.007,0,0.007,0,0.007C20.08,20.963,20.183,21.556,20.198,22.144z"/>
		<path style="fill:#000000;" d="M12.425,22.757H8.583c-0.044-0.047-0.074-0.087-0.088-0.133c-1.516-5.718-7.287-8.9-8.494-9.621    c1.163,0.434,6.89,3.303,10.275,6.485c1.001,0.941,1.811,1.908,2.223,2.849C12.557,22.484,12.528,22.631,12.425,22.757z"/>
		<path style="fill:#000000;" d="M40.807,22.144c0,0.207-0.133,0.4-0.339,0.567c-0.015,0.013-0.044,0.033-0.059,0.047h-5.079    c-0.088-0.04-0.147-0.08-0.191-0.127c-0.235-0.173-0.368-0.367-0.368-0.567c0.162-1.094,0.191-2.135,0.103-3.116    c0.015-0.013,0.015-0.02,0-0.02c0.015-0.007,0-0.013,0-0.013c0-0.007,0-0.007,0-0.007c-0.103-1.474-0.427-2.822-0.898-4.043    c-1.649-4.37-4.961-7.119-5.859-7.939c0.751,0.407,2.93,1.948,5.285,4.056c0,0.007,0,0.007,0,0.007    c2.767,2.475,5.756,5.731,6.904,8.833c0,0.007,0.015,0.007,0,0.013C40.601,20.616,40.778,21.396,40.807,22.144z"/>
		<path style="fill:#000000;" d="M16.296,22.137c0,0.233-0.147,0.447-0.398,0.621h-5.123c-0.324-0.187-0.515-0.42-0.515-0.681    c0.088-0.894,0.088-1.761,0.014-2.589C9.657,13.25,4.637,8.88,3.18,8.046c1.443,0.52,7.287,3.97,10.673,8.333    C15.251,18.194,16.238,20.162,16.296,22.137z"/>
		<path style="fill:#000000;" d="M23.819,22.517c0,0.087-0.044,0.167-0.118,0.24h-3.769c-0.029-0.013-0.044-0.033-0.059-0.053    v-0.007c-0.073-0.08-0.118-0.173-0.118-0.26c0.118-0.727,0.162-1.421,0.133-2.082c0,0,0,0,0-0.007    c-0.192-4.543-3.592-7.412-4.343-8.126c0.795,0.447,4.019,2.862,6.198,5.658C22.936,19.401,23.804,21.029,23.819,22.517z"/>
	</g>
</g>
<g id="Isolation_Mode-i10">
</g>
</svg></g></svg>