<svg fill="none" height="165" viewBox="0 0 204 165" width="204" xmlns="http://www.w3.org/2000/svg" xmlns:xlink="http://www.w3.org/1999/xlink"><clipPath id="a"><path d="m0 0h203.951v165.001h-203.951z"/></clipPath><g clip-path="url(#a)"><path d="m202.45 141.5c-23 10-17 22-17 22h-125.9999s-7-13 17-22" fill="#fff"/><path d="m185.45 164.999h-125.9999c-.2709 0-.5368-.073-.7694-.212s-.4232-.338-.5516-.577c-.7054-1.531-1.0932-3.19-1.1399-4.875-.0468-1.686.2485-3.363.8679-4.932 2.184-5.818 8.262-10.632 18.066-14.309.3725-.14.7853-.126 1.1475.039s.6442.466.784.839c.1398.372.1258.785-.0387 1.147-.1646.362-.4663.644-.8388.784-8.788 3.3-14.418 7.612-16.285 12.484-.8401 2.111-.9242 4.447-.238 6.612h122.9909c-.399-2.248-.185-4.563.619-6.7 2.132-5.866 8.117-10.973 17.788-15.178.181-.079.375-.121.572-.125.197-.003.393.032.577.104.183.072.351.18.493.316.142.137.255.301.334.481.079.181.121.375.125.572.004.198-.032.393-.104.577-.072.183-.179.351-.316.493s-.3.255-.481.334c-8.7 3.783-14.279 8.4-16.129 13.355-.89 2.106-.933 4.473-.122 6.61.111.229.162.483.148.737s-.092.501-.227.717c-.135.215-.322.393-.545.517-.222.124-.472.189-.727.19z" fill="#1a1a1a"/><path d="m59.4501 163.5-56.99996-140s-7-13 16.99996-22" fill="#fece2f"/><path d="m59.451 165c-.2984 0-.5901-.089-.8377-.256-.2476-.166-.4399-.403-.5523-.679l-56.97698-139.9405c-.681679-1.5238-1.0528499-3.1682-1.09182541-4.8371-.03897549-1.6689.25502641-3.3289.86482841-4.8829 2.183997-5.81798 8.261997-10.63198 18.065977-14.304977.3725-.1397691.7853-.1258399 1.1475.038723.3622.164563.6443.46628.784.838777.1398.372497.1259.785257-.0387 1.147487s-.4663.64424-.8388.78401c-8.788 3.291-14.41798 7.60798-16.28498 12.47998-.48424 1.1775-.72645 2.4404-.71219 3.7135.01426 1.273.2847 2.5302.79519 3.6965.02394.0441.04531.0895.064.136l56.99998 140.0005c.1501.368.1477.781-.0066 1.147-.1544.367-.448.657-.8164.808-.1793.073-.3713.11-.565.11z" fill="#1a1a1a"/><path d="m76.4502 141.5-57-140h125.9998l57 140z" fill="#fece2f"/><path d="m202.45 143h-125.9998c-.2983 0-.5897-.089-.8371-.256-.2475-.166-.4396-.403-.5519-.679l-57-140c-.0926-.2277-.1278-.47467-.1026-.71918.0253-.2445.1103-.47905.2474-.68301.1372-.203959.3225-.371079.5394-.486655.2169-.1155772.459-.17606925.7048-.176155h125.9998c.298.00002311.59.0888853.837.255243.247.166358.44.402665.552.678757l57 140c.093.228.128.475.103.719-.025.245-.11.48-.247.684s-.323.371-.54.487c-.217.115-.459.176-.705.176zm-124.9908-3h122.7608l-55.779-137h-122.7598z" fill="#1a1a1a"/><path d="m19.4502 1.5 57 140s-22 8-17 22" fill="#fece2f"/><path d="m59.4502 165c-.3098-.001-.6119-.097-.8647-.276s-.444-.432-.5473-.724c-4.7-13.167 11.391-21.183 16.454-23.336l-56.431-138.59823c-.0789-.18324-.1204-.38036-.1222-.57985-.0017-.19948.0363-.39731.1119-.581915.0757-.184601.1874-.352262.3286-.493169.1412-.140908.3091-.252231.4939-.3274541.1847-.07522328.3826-.1128352.5821-.1106344.1995.0022009.3965.0441703.5796.1234517.1831.0792818.3485.1942818.4865.3382708.1381.143989.2461.314073.3176.500298l57 140.000232c.0761.187.1136.387.1105.588-.0031.202-.0468.401-.1286.586-.0818.184-.1999.35-.3473.488-.1474.137-.3211.244-.5106.313-.2.075-20.539 7.657-16.1 20.086.0664.185.0956.382.0859.579s-.0581.39-.1425.568c-.0843.178-.2029.338-.349.47s-.3168.235-.5024.301c-.1623.056-.333.086-.505.086z" fill="#1a1a1a"/><path d="m79.3602 64.5008-12.41-26.661h60.5898l12.41 26.661z" fill="#fff"/><g fill="#1a1a1a"><path d="m139.95 65.9998h-60.5902c-.2856.0002-.5653-.0813-.8062-.2347s-.433-.3724-.5538-.6313l-12.41-26.662c-.1061-.2285-.153-.4801-.1363-.7316.0167-.2514.0966-.4946.2321-.7071.1355-.2124.3224-.3873.5433-.5085.221-.1211.4689-.1847.7209-.1848h60.5902c.286 0 .565.0816.806.2352s.433.3728.554.6318l12.41 26.661c.106.2286.153.4802.136.7317-.017.2514-.096.4946-.232.707-.135.2125-.322.3874-.543.5086-.221.1211-.469.1847-.721.1847zm-59.6332-3h57.2832l-11.016-23.66h-57.2842z"/><path d="m6.95883 8.47656s-2.009 8.52204.991 15.52204c2.99997 7 48.99997 120.0004 48.99997 120.0004s3 4 .908 15.588c-2.815-8.176-55.78897-137.0154-55.78897-137.0154s-2.1020002-9.617 4.89-14.09504z"/><path d="m59.7798 162.601s4.615-19.563 136.7502-19.563c.209 0-119.2502-1.534-119.2502-1.534s-22.125 8.157-17.5 21.097z"/><path d="m196.53 143.033c-132.135 0-124 15.75-136.75 19.563-.636-14.938 17.5-21.1 17.5-21.1z"/></g></g></svg>