<svg enable-background="new 0 0 552.6 655.8" height="656" viewBox="0 0 552.6 655.8" width="553" xmlns="http://www.w3.org/2000/svg"><g fill="#383a48"><path d="m173.7 147.2c-21.4 0-38.1-32.3-38.1-73.6 0-41.2 16.7-73.6 38.1-73.6s38.1 32.3 38.1 73.6-16.8 73.6-38.1 73.6zm0-137.1c-6.7 0-13.6 6.3-18.9 17.3-5.9 12.3-9.2 28.7-9.2 46.3s3.3 34 9.2 46.3c5.3 11 12.2 17.3 18.9 17.3s13.6-6.3 18.9-17.3c5.9-12.3 9.2-28.7 9.2-46.3s-3.3-34-9.2-46.3c-5.3-11-12.2-17.3-18.9-17.3z"/><path d="m219.3 147.2c-21.4 0-38.1-32.3-38.1-73.6 0-41.2 16.7-73.6 38.1-73.6s38.1 32.3 38.1 73.6-16.8 73.6-38.1 73.6zm0-137.1c-6.7 0-13.6 6.3-18.9 17.3-5.9 12.3-9.2 28.7-9.2 46.3s3.3 34 9.2 46.3c5.3 11 12.2 17.3 18.9 17.3s13.6-6.3 18.9-17.3c5.9-12.3 9.2-28.7 9.2-46.3s-3.3-34-9.2-46.3c-5.3-11-12.2-17.3-18.9-17.3z"/><path d="m264.9 147.2c-21.4 0-38.1-32.3-38.1-73.6 0-41.2 16.7-73.6 38.1-73.6s38.1 32.3 38.1 73.6-16.7 73.6-38.1 73.6zm0-137.1c-6.7 0-13.6 6.3-18.9 17.3-5.9 12.3-9.2 28.7-9.2 46.3s3.3 34 9.2 46.3c5.3 11 12.2 17.3 18.9 17.3s13.6-6.3 18.9-17.3c5.9-12.3 9.2-28.7 9.2-46.3s-3.3-34-9.2-46.3c-5.3-11-12.2-17.3-18.9-17.3z"/><path d="m310.5 147.2c-21.4 0-38.1-32.3-38.1-73.6 0-41.2 16.7-73.6 38.1-73.6s38.1 32.3 38.1 73.6-16.7 73.6-38.1 73.6zm0-137.1c-6.7 0-13.6 6.3-18.9 17.3-5.9 12.3-9.2 28.7-9.2 46.3s3.3 34 9.2 46.3c5.3 11 12.2 17.3 18.9 17.3s13.6-6.3 18.9-17.3c5.9-12.3 9.2-28.7 9.2-46.3s-3.3-34-9.2-46.3c-5.3-11-12.2-17.3-18.9-17.3z"/><path d="m356.1 147.2c-21.4 0-38.1-32.3-38.1-73.6 0-41.2 16.7-73.6 38.1-73.6s38.1 32.3 38.1 73.6-16.7 73.6-38.1 73.6zm0-137.1c-6.7 0-13.6 6.3-18.9 17.3-5.9 12.3-9.2 28.7-9.2 46.3s3.3 34 9.2 46.3c5.3 11 12.2 17.3 18.9 17.3s13.6-6.3 18.9-17.3c5.9-12.3 9.2-28.7 9.2-46.3s-3.3-34-9.2-46.3c-5.3-11-12.2-17.3-18.9-17.3z"/><path d="m401.7 147.2c-21.4 0-38.1-32.3-38.1-73.6 0-41.2 16.7-73.6 38.1-73.6s38.1 32.3 38.1 73.6-16.7 73.6-38.1 73.6zm0-137.1c-6.7 0-13.6 6.3-18.9 17.3-5.9 12.3-9.2 28.7-9.2 46.3s3.3 34 9.2 46.3c5.3 11 12.2 17.3 18.9 17.3s13.6-6.3 18.9-17.3c5.9-12.3 9.2-28.7 9.2-46.3s-3.3-34-9.2-46.3c-5.3-11-12.2-17.3-18.9-17.3z"/><path d="m447.3 147.2c-21.4 0-38.1-32.3-38.1-73.6 0-41.2 16.7-73.6 38.1-73.6s38.1 32.3 38.1 73.6-16.7 73.6-38.1 73.6zm0-137.1c-6.7 0-13.6 6.3-18.9 17.3-5.9 12.3-9.2 28.7-9.2 46.3s3.3 34 9.2 46.3c5.3 11 12.2 17.3 18.9 17.3s13.6-6.3 18.9-17.3c5.9-12.3 9.2-28.7 9.2-46.3s-3.3-34-9.2-46.3c-5.3-11-12.1-17.3-18.9-17.3z"/><path d="m492.9 147.2c-21.4 0-38.1-32.3-38.1-73.6 0-41.2 16.7-73.6 38.1-73.6s38.1 32.3 38.1 73.6-16.7 73.6-38.1 73.6zm0-137.1c-6.7 0-13.6 6.3-18.9 17.3-5.9 12.3-9.2 28.7-9.2 46.3s3.3 34 9.2 46.3c5.3 11 12.2 17.3 18.9 17.3s13.6-6.3 18.9-17.3c5.9-12.3 9.2-28.7 9.2-46.3s-3.3-34-9.2-46.3c-5.3-11-12.1-17.3-18.9-17.3z"/><path d="m119.1 73.7h428.5v577.1h-428.5z"/><path d="m547.6 655.8h-428.5c-2.8 0-5-2.2-5-5v-577.1c0-2.8 2.2-5 5-5h428.5c2.8 0 5 2.2 5 5v577.1c0 2.7-2.3 5-5 5zm-423.5-10h418.5v-567.1h-418.5z"/></g><path d="m547.6 73.7h-428.5s-5 462.1-114 577.1h428.5c102.4-95 114-577.1 114-577.1z" fill="#f3f6e6"/><path d="m433.5 655.8h-428.5c-2 0-3.8-1.2-4.6-3s-.4-4 1-5.4c55.3-58.4 83-211 96.5-328.7 14.7-128.2 16.1-243.8 16.1-245 0-2.7 2.3-4.9 5-4.9h428.5c1.3 0 2.6.5 3.6 1.5.9 1 1.5 2.3 1.4 3.6 0 1.2-3.1 122.3-18.6 253.4-21 176.9-53.6 287-97 327.2-.9.8-2.1 1.3-3.4 1.3zm-417.5-10h415.5c50.9-49.4 78.4-200.8 92.5-319.7 13.7-115.4 17.7-223 18.4-247.4h-418.4c-.4 23.5-3.1 127.3-16.1 241-8.7 75.7-20.2 140.8-34.2 193.7-16 60.1-35.4 104.5-57.7 132.4z" fill="#383a48"/><path d="m173.7 161.1h297.9v10h-297.9z" fill="#383a48"/><path d="m173.7 241.7h297.9v10h-297.9z" fill="#383a48"/><path d="m167 322.3h297.9v10h-297.9z" fill="#383a48"/><path d="m156.8 402.9h297.9v10h-297.9z" fill="#383a48"/><path d="m140.6 483.4h297.9v10h-297.9z" fill="#383a48"/><path d="m116 564h297.9v10h-297.9z" fill="#383a48"/></svg>